<mxfile host="app.diagrams.net" agent="Mozilla/5.0 (Windows NT 10.0; Win64; x64) AppleWebKit/537.36 (KHTML, like Gecko) Chrome/128.0.0.0 Safari/537.36" version="24.7.14">
  <diagram id="C5RBs43oDa-KdzZeNtuy" name="Page-1">
    <mxGraphModel dx="954" dy="566" grid="1" gridSize="10" guides="1" tooltips="1" connect="1" arrows="1" fold="1" page="1" pageScale="1" pageWidth="827" pageHeight="1169" math="0" shadow="0">
      <root>
        <mxCell id="WIyWlLk6GJQsqaUBKTNV-0" />
        <mxCell id="WIyWlLk6GJQsqaUBKTNV-1" parent="WIyWlLk6GJQsqaUBKTNV-0" />
        <mxCell id="5r8MbyxDYKrhyKxnQI5X-20" value="" style="rounded=0;whiteSpace=wrap;html=1;" vertex="1" parent="WIyWlLk6GJQsqaUBKTNV-1">
          <mxGeometry x="120" y="320" width="320" height="200" as="geometry" />
        </mxCell>
        <mxCell id="5r8MbyxDYKrhyKxnQI5X-21" value="WhatsApp OTP" style="rounded=1;whiteSpace=wrap;html=1;fillColor=#f8cecc;strokeColor=#b85450;fontStyle=1" vertex="1" parent="WIyWlLk6GJQsqaUBKTNV-1">
          <mxGeometry x="140" y="340" width="120" height="60" as="geometry" />
        </mxCell>
        <mxCell id="5r8MbyxDYKrhyKxnQI5X-22" value="" style="group" vertex="1" connectable="0" parent="WIyWlLk6GJQsqaUBKTNV-1">
          <mxGeometry x="120" y="80" width="580" height="200" as="geometry" />
        </mxCell>
        <mxCell id="5r8MbyxDYKrhyKxnQI5X-0" value="" style="rounded=0;whiteSpace=wrap;html=1;" vertex="1" parent="5r8MbyxDYKrhyKxnQI5X-22">
          <mxGeometry width="580" height="200" as="geometry" />
        </mxCell>
        <mxCell id="5r8MbyxDYKrhyKxnQI5X-1" value="WhatsApp OTP" style="rounded=1;whiteSpace=wrap;html=1;fillColor=#f8cecc;strokeColor=#b85450;fontStyle=1" vertex="1" parent="5r8MbyxDYKrhyKxnQI5X-22">
          <mxGeometry x="28" y="30.5" width="120" height="60" as="geometry" />
        </mxCell>
        <mxCell id="5r8MbyxDYKrhyKxnQI5X-2" value="Mail OTP" style="rounded=1;whiteSpace=wrap;html=1;fillColor=#dae8fc;strokeColor=#6c8ebf;fontStyle=1" vertex="1" parent="5r8MbyxDYKrhyKxnQI5X-22">
          <mxGeometry x="162" y="30.5" width="120" height="60" as="geometry" />
        </mxCell>
        <mxCell id="5r8MbyxDYKrhyKxnQI5X-3" value="Password" style="rounded=1;whiteSpace=wrap;html=1;fillColor=#d5e8d4;strokeColor=#82b366;fontStyle=1" vertex="1" parent="5r8MbyxDYKrhyKxnQI5X-22">
          <mxGeometry x="295.5" y="30.5" width="120" height="60" as="geometry" />
        </mxCell>
        <mxCell id="5r8MbyxDYKrhyKxnQI5X-4" value="Link Activate" style="rounded=1;whiteSpace=wrap;html=1;fillColor=#ffe6cc;strokeColor=#d79b00;fontStyle=1" vertex="1" parent="5r8MbyxDYKrhyKxnQI5X-22">
          <mxGeometry x="432" y="29.5" width="120" height="60" as="geometry" />
        </mxCell>
        <mxCell id="5r8MbyxDYKrhyKxnQI5X-5" value="Fingerprint" style="rounded=1;whiteSpace=wrap;html=1;fontStyle=0;fillColor=#a20025;fontColor=#ffffff;strokeColor=#6F0000;" vertex="1" parent="5r8MbyxDYKrhyKxnQI5X-22">
          <mxGeometry x="28" y="110.5" width="120" height="60" as="geometry" />
        </mxCell>
        <mxCell id="5r8MbyxDYKrhyKxnQI5X-6" value="ShortCut Link" style="rounded=1;whiteSpace=wrap;html=1;fillColor=#60a917;fontColor=#ffffff;strokeColor=#2D7600;fontStyle=0" vertex="1" parent="5r8MbyxDYKrhyKxnQI5X-22">
          <mxGeometry x="162" y="110.5" width="120" height="60" as="geometry" />
        </mxCell>
        <mxCell id="5r8MbyxDYKrhyKxnQI5X-7" value="QR Code" style="rounded=1;whiteSpace=wrap;html=1;fillColor=#008a00;fontColor=#ffffff;strokeColor=#005700;fontStyle=0" vertex="1" parent="5r8MbyxDYKrhyKxnQI5X-22">
          <mxGeometry x="295.5" y="110.5" width="120" height="60" as="geometry" />
        </mxCell>
        <mxCell id="5r8MbyxDYKrhyKxnQI5X-8" value="Secret questions ?" style="rounded=1;whiteSpace=wrap;html=1;fontStyle=1;fillColor=#647687;fontColor=#ffffff;strokeColor=#314354;" vertex="1" parent="5r8MbyxDYKrhyKxnQI5X-22">
          <mxGeometry x="432" y="109.5" width="120" height="60" as="geometry" />
        </mxCell>
      </root>
    </mxGraphModel>
  </diagram>
</mxfile>
